<svg xmlns="http://www.w3.org/2000/svg" width="212" height="54" viewBox="0 0 212 54" fill="none"><path d="M31.2671 23.2676C30.4226 19.1441 28.0554 17.25 25.4852 14.132C23.6064 11.8548 20.8159 10.2882 18.9121 13.4368C18.1461 14.7047 17.8722 15.9266 16.7652 17.0125C15.6582 18.0985 13.7928 18.8281 12.975 20.1324C11.3547 22.7103 12.0423 27.7128 12.5919 30.5551C13.6932 36.1686 19.9809 34.4544 24.0986 35.0978C25.0562 35.2454 25.0945 35.6878 26.2953 35.2761C27.636 34.8146 28.8694 33.495 29.7006 32.4034C31.6485 29.8253 31.8992 26.3933 31.2595 23.2753L31.2671 23.2676Z" fill="#421EF4"></path><path d="M17.9622 23.6669C17.9338 23.6299 17.9199 23.5838 17.9231 23.5372C17.9262 23.4907 17.9463 23.4469 17.9794 23.4141L18.035 23.3624H18.0465L18.102 23.3203L18.1537 23.2916L18.2016 23.2743C18.2175 23.2723 18.2336 23.2723 18.2495 23.2743C18.2641 23.2725 18.2789 23.2725 18.2935 23.2743C18.3077 23.2798 18.3212 23.2869 18.3338 23.2954C18.3482 23.3056 18.3617 23.3171 18.374 23.3298C18.6027 23.5593 18.8075 23.8115 18.985 24.0825L19.1247 24.3028L19.1707 24.3717L19.2684 24.5211L19.3239 24.6035L19.4139 24.7356L19.4772 24.8237L19.5652 24.9482L19.6323 25.0382L19.7204 25.155L19.7912 25.2451L19.8813 25.3581L19.9579 25.4481L20.0498 25.5553L20.1302 25.6434L20.1934 25.7143L20.249 25.7737H20.3409H20.3601H20.3792C20.3913 25.7636 20.4009 25.751 20.4075 25.7367C20.4141 25.7225 20.4175 25.707 20.4175 25.6913C20.4175 25.2451 20.4405 24.7969 20.4175 24.3507C20.3735 23.5846 20.2969 22.8185 20.2375 22.0639C20.2222 21.8724 20.2145 21.6808 20.2183 21.4893C20.2222 21.2978 20.385 21.1063 20.5075 21.1561C20.6259 21.2055 20.73 21.2839 20.8102 21.384C20.8604 21.4656 20.8857 21.5601 20.8829 21.6559C20.9595 22.8951 21.0591 24.1342 21.0974 25.3753C21.1261 26.3329 21.0649 27.2905 21.0706 28.2481C21.0706 28.4301 21.0706 28.612 21.0821 28.7921C21.0821 28.8591 21.0821 28.9261 21.0821 28.9836C21.0821 29.1004 21.0821 29.2192 21.0955 29.336C21.1089 29.4528 21.0955 29.5275 21.1089 29.6194C21.1089 29.7471 21.1147 29.8748 21.1261 30.0025C21.1261 30.1653 21.1415 30.3262 21.1472 30.487C21.3828 30.5713 21.4403 30.4392 21.5073 30.3357C22.4764 28.8553 23.4512 27.3767 24.1177 25.7622C24.1641 25.6377 24.2358 25.5242 24.3284 25.4289C24.3682 25.4007 24.4136 25.3815 24.4616 25.3726C24.5095 25.3636 24.5588 25.3652 24.6061 25.3772C24.6808 25.406 24.7746 25.5285 24.7574 25.5898C24.6735 25.9029 24.5685 26.2101 24.4433 26.5091C24.0182 27.507 23.4225 28.4243 22.8422 29.3666C22.35 30.1576 21.8942 30.9659 21.4422 31.7759C21.3264 31.9701 21.2607 32.1898 21.2507 32.4156C21.2507 33.2815 21.2507 35.007 21.2507 35.007L21.1281 41.8423C21.1292 41.8865 21.1149 41.9301 21.0876 41.9648C21.0604 41.9997 21.0219 42.0243 20.9787 42.0338H20.9404H20.9251H20.881H20.8274H20.6991H20.6454H20.632L20.5937 42.0224H20.5784L20.5305 41.9994C20.4808 41.9641 20.4407 41.9166 20.414 41.862C20.3872 41.807 20.3746 41.7463 20.3773 41.6852L20.7642 35.0242V34.8996V34.8328V34.7542V34.5778V34.4897V34.4495V34.3385V34.3195V34.2216L20.745 33.8387V33.7736C20.745 33.5972 20.7278 33.4097 20.7182 33.2085V33.1223L20.7048 32.8139V32.743V32.5516V32.4347V32.3926V32.3064V32.2337V32.1628V32.0404V31.868L20.6952 31.6477V31.5768V31.4771V31.4409V31.366V31.2645V31.2396V31.1534V31.0693V31.0252V30.9506V30.8739V30.8049V30.734V30.6824V30.5866V30.5387V30.464V30.3894V30.3281V30.2132V30.0772V29.9584V29.9316V29.8148V29.7995V29.7114V29.6405V29.6022V29.5122V29.4605V29.3781V29.2574V29.1521V29.1272V29.0066V28.8897V28.8763V28.7691V28.748V28.545V28.3784C20.6952 28.1485 20.678 27.9187 20.6703 27.687C20.6583 27.3034 20.5241 26.9337 20.2873 26.6317C20.1034 26.3763 19.9202 26.121 19.7376 25.8656L19.5652 25.6243L19.1937 25.1052L18.6862 24.682L18.2935 24.1266L17.9622 23.6669Z" fill="white" stroke="#421EF4" stroke-width="0.5" stroke-linejoin="round"></path><path d="M33.5525 11.7488C34.3447 12.1456 35.0304 12.4797 35.7103 12.8314C36.5056 13.2422 36.5992 13.8241 35.9825 14.535C35.7564 14.7955 35.4916 15.0104 35.1449 15.345L35.7963 15.2057L35.6333 15.7921L37.2681 14.3827L38.352 17.7108C38.383 16.8855 38.3741 16.0587 38.3247 15.2345C38.2146 14.4895 38.0661 13.7533 37.8795 13.0299C37.5261 12.849 37.1821 12.6418 36.8505 12.4096C36.1789 11.8825 34.596 11.5098 33.5525 11.7488Z" fill="#489E83"></path><path d="M37.511 29.3011C38.1308 28.686 38.6585 28.1506 39.2006 27.6262C39.8345 27.0127 40.4073 27.1082 40.8774 27.9078C41.0495 28.201 41.167 28.5158 41.3705 28.9449L41.4453 28.2927L41.9417 28.6293L41.1397 26.6591L44.5887 26.6936C43.8278 26.4049 43.0527 26.1534 42.2673 25.9402C41.5371 25.8087 40.8025 25.716 40.0683 25.6627C39.7882 25.936 39.4866 26.1919 39.1653 26.4287C38.4618 26.8903 37.6159 28.2513 37.511 29.3011Z" fill="#E62565"></path><path d="M51.2878 15.8564L51.251 13.1809C51.6069 13.1686 51.9506 13.2055 52.2574 13.3773C52.7728 13.6841 52.9447 14.31 53.0551 14.9605C53.2883 16.4332 52.5519 17.3782 51.3001 17.6236C51.3001 17.4518 51.3001 17.2677 51.3001 17.0959L51.2878 15.8564ZM53.3987 22.7659L54.5524 22.6309C53.816 20.8514 53.0919 18.9614 52.736 18.1146C53.7178 17.5623 54.3315 16.5682 54.2087 15.2673C54.1228 14.4696 53.7301 12.9846 53.0183 12.5673C51.9137 11.9291 50.5269 12.1868 50.0115 12.1991C50.0115 12.1991 50.1342 16.1018 50.1219 17.955C50.0974 20.4955 50.0483 22.8273 50.0483 22.8641L51.2387 22.6432C51.2387 22.5082 51.2756 20.7041 51.2878 18.6177C51.3983 18.6055 51.5087 18.5809 51.6192 18.5564C52.0119 19.4523 52.6992 21.0723 53.3987 22.7659ZM57.1471 21.5264C57.1594 20.6059 57.1594 18.8141 57.1594 17.1573L58.8162 17.0591L58.804 15.9177L57.1471 16.0159C57.1471 15.0955 57.1471 14.175 57.1226 13.4264C57.1471 13.4141 57.1717 13.3773 57.1962 13.365C57.4294 13.2546 58.7303 13.2177 59.8103 13.1073L59.7244 12.0518C58.5094 12.1868 56.4844 12.2973 56.3126 12.3586C56.0671 12.4323 55.9076 12.6655 55.9076 12.9109C56.0303 15.66 55.9321 21.1459 55.9199 21.9805C55.9321 22.1277 55.9076 22.3364 56.0303 22.4836C56.1408 22.6186 56.3003 22.68 56.4844 22.68C56.5949 22.68 58.3376 22.5941 59.7981 22.5205L59.749 21.465C58.6812 21.465 57.2085 21.5264 57.1471 21.5264ZM65.5257 12.3586L65.5135 12.2114L64.3721 12.2236V12.3709C64.4335 14.1014 64.4457 16.2368 64.3966 18.1391C64.2126 17.5255 64.0285 16.9364 63.8566 16.3841C63.4148 14.985 62.973 13.0827 62.8012 12.3218L62.7766 12.2114H61.6721L61.6844 12.3586C61.7703 15.3532 61.7826 19.3418 61.7335 22.5327V22.68H62.8871V22.545C62.9116 20.8023 62.9239 18.9736 62.9116 17.1818C63.4394 18.8755 63.9671 20.6305 64.1757 22.5573L64.188 22.68L65.3171 22.6923L65.3294 22.5573C65.5626 19.44 65.6362 15.6232 65.5257 12.3586ZM72.2337 20.8882H72.0619L72.0128 21.06C71.976 21.1214 71.7551 21.2932 71.5096 21.3791L71.4237 21.4159C71.2519 21.5141 70.4296 21.6982 69.6687 21.2441C68.7605 20.7041 68.2696 19.4155 68.2696 17.5132C68.2696 15.5864 68.9446 14.5432 69.5092 14.0155C70.0492 13.5 70.5523 13.3896 70.626 13.3773L70.8469 13.4018L71.0187 12.1255L70.7855 12.1009C70.2455 12.015 69.3987 12.3832 68.736 12.96C67.926 13.6718 66.981 15.0341 66.981 17.5132C66.981 20.52 68.0855 21.8086 69.006 22.3609C69.6687 22.7536 70.3314 22.8273 70.7732 22.8273C71.2396 22.8273 71.6814 22.7414 72.0005 22.5818C72.2582 22.4714 73.1419 21.9191 73.326 21.1827L73.3996 20.8882H72.2337ZM76.9477 21.5632C76.604 21.5877 76.4445 21.2073 76.3831 20.9741C75.8186 19.035 75.7695 16.6786 76.2113 14.1873C76.2727 13.8805 76.6163 13.1318 76.9722 13.1318C77.1686 13.1564 77.549 13.2914 77.5981 13.7086C77.8558 15.6968 78.1136 18.5932 77.4631 20.7777C77.2422 21.5386 77.0336 21.5509 76.9477 21.5632ZM78.764 13.5859C78.6413 12.6041 77.7945 12.0886 77.0581 12.0396C75.7081 11.9414 75.1313 13.5614 75.0577 14.0032C74.579 16.6541 74.6404 19.17 75.2417 21.2564C75.6222 22.5573 76.6286 22.6555 76.9231 22.6555C76.9722 22.6555 77.009 22.6555 77.0458 22.6555C78.0399 22.5818 78.4081 21.7105 78.6045 21.0723C79.304 18.7036 79.034 15.66 78.764 13.5859ZM85.036 12.3586L85.0237 12.2114L83.8824 12.2236V12.3709C83.9437 14.1014 83.956 16.2368 83.9069 18.1391C83.7228 17.5255 83.5387 16.9364 83.3669 16.3841C82.9251 14.985 82.4833 13.0827 82.3114 12.3218L82.2869 12.2114H81.1824L81.1946 12.3586C81.2805 15.3532 81.2928 19.3418 81.2437 22.5327V22.68H82.3974V22.545C82.4219 20.8023 82.4342 18.9736 82.4219 17.1818C82.9496 18.8755 83.4774 20.6305 83.686 22.5573L83.6983 22.68L84.8274 22.6923L84.8396 22.5573C85.0728 19.44 85.1465 15.6232 85.036 12.3586ZM91.2162 12.0641C91.1303 12.0518 89.9031 12.1991 88.7126 12.1991H88.1481L86.4912 12.2482C86.4912 12.2482 86.4912 12.7882 86.4912 13.3159C86.4912 13.3159 87.7308 13.3036 88.3444 13.3036C88.3935 14.5186 88.4058 16.3473 88.4058 17.9918C88.3812 20.4586 88.3321 22.7168 88.3321 22.7536L89.449 22.545C89.449 22.3732 89.4981 19.7346 89.4981 17.1573V15.9668L89.449 13.3282C89.989 13.3159 91.3144 13.2055 91.3144 13.2055L91.2162 12.0641ZM93.9392 15.8564L93.9024 13.1809C94.2583 13.1686 94.602 13.2055 94.9088 13.3773C95.4242 13.6841 95.5961 14.31 95.7065 14.9605C95.9397 16.4332 95.2033 17.3782 93.9515 17.6236C93.9515 17.4518 93.9515 17.2677 93.9515 17.0959L93.9392 15.8564ZM96.0502 22.7659L97.2038 22.6309C96.4674 20.8514 95.7433 18.9614 95.3874 18.1146C96.3692 17.5623 96.9829 16.5682 96.8602 15.2673C96.7742 14.4696 96.3815 12.9846 95.6697 12.5673C94.5652 11.9291 93.1783 12.1868 92.6629 12.1991C92.6629 12.1991 92.7856 16.1018 92.7733 17.955C92.7488 20.4955 92.6997 22.8273 92.6997 22.8641L93.8902 22.6432C93.8902 22.5082 93.927 20.7041 93.9392 18.6177C94.0497 18.6055 94.1602 18.5809 94.2706 18.5564C94.6633 19.4523 95.3506 21.0723 96.0502 22.7659ZM99.7989 21.5264C99.8111 20.6059 99.8111 18.8141 99.8111 17.1573L101.468 17.0591L101.456 15.9177L99.7989 16.0159C99.7989 15.0955 99.7989 14.175 99.7743 13.4264C99.7989 13.4141 99.8234 13.3773 99.8479 13.365C100.081 13.2546 101.382 13.2177 102.462 13.1073L102.376 12.0518C101.161 12.1868 99.1361 12.2973 98.9643 12.3586C98.7189 12.4323 98.5593 12.6655 98.5593 12.9109C98.682 15.66 98.5839 21.1459 98.5716 21.9805C98.5839 22.1277 98.5593 22.3364 98.682 22.4836C98.7925 22.6186 98.952 22.68 99.1361 22.68C99.2466 22.68 100.989 22.5941 102.45 22.5205L102.401 21.465C101.333 21.465 99.8602 21.5264 99.7989 21.5264ZM105.759 15.6109L105.723 15.5496C105.637 15.4023 105.109 14.1136 105.71 13.5368C105.968 13.3036 106.164 13.23 106.263 13.2423C106.361 13.2546 106.496 13.365 106.619 13.5614L106.692 13.6718L107.674 13.095L107.588 12.9723C107.269 12.4814 106.864 12.1991 106.398 12.15C105.907 12.0886 105.391 12.2973 104.913 12.7514C103.808 13.7946 104.422 15.5496 104.716 16.0773C104.753 16.1755 105.723 18.3968 106.496 20.6918C106.545 20.8514 106.533 21.1091 106.41 21.2932C106.324 21.4405 106.177 21.5141 105.968 21.5509C105.219 21.6614 104.999 21.1336 104.949 20.9741L104.913 20.8391L103.808 21.1214L103.845 21.2564C103.98 21.7473 104.557 22.68 105.759 22.68C105.882 22.68 106.017 22.6677 106.14 22.6432C106.68 22.5696 107.122 22.2996 107.392 21.8823C107.674 21.4527 107.748 20.8514 107.588 20.3482C106.827 18.0655 105.87 15.8686 105.759 15.6109ZM114.471 12.2114C114.471 12.2114 113.747 12.2114 113.232 12.2236C113.232 12.2236 113.256 12.5182 113.268 12.8127C113.342 14.0646 113.354 16.065 113.342 17.9673C113.33 20.4955 113.268 22.815 113.268 22.8518L114.459 22.6309C114.471 22.4591 114.52 19.7468 114.52 17.1082V15.8686L114.471 12.2114ZM120.413 12.3586L120.4 12.2114L119.259 12.2236V12.3709C119.32 14.1014 119.333 16.2368 119.284 18.1391C119.1 17.5255 118.915 16.9364 118.744 16.3841C118.302 14.985 117.86 13.0827 117.688 12.3218L117.664 12.2114H116.559L116.571 12.3586C116.657 15.3532 116.67 19.3418 116.62 22.5327V22.68H117.774V22.545C117.799 20.8023 117.811 18.9736 117.799 17.1818C118.326 18.8755 118.854 20.6305 119.063 22.5573L119.075 22.68L120.204 22.6923L120.216 22.5573C120.45 19.44 120.523 15.6232 120.413 12.3586ZM126.593 12.0641C126.507 12.0518 125.279 12.1991 124.089 12.1991H123.524L121.868 12.2482C121.868 12.2482 121.868 12.7882 121.868 13.3159C121.868 13.3159 123.107 13.3036 123.721 13.3036C123.77 14.5186 123.782 16.3473 123.782 17.9918C123.758 20.4586 123.709 22.7168 123.709 22.7536L124.825 22.545C124.825 22.3732 124.874 19.7346 124.874 17.1573V15.9668L124.825 13.3282C125.365 13.3159 126.691 13.2055 126.691 13.2055L126.593 12.0641ZM129.279 21.5264C129.291 20.6059 129.291 18.8141 129.291 17.1573L130.948 17.0591L130.936 15.9177L129.279 16.0159C129.279 15.0955 129.279 14.175 129.255 13.4264C129.279 13.4141 129.304 13.3773 129.328 13.365C129.561 13.2546 130.862 13.2177 131.942 13.1073L131.856 12.0518C130.641 12.1868 128.616 12.2973 128.445 12.3586C128.199 12.4323 128.04 12.6655 128.04 12.9109C128.162 15.66 128.064 21.1459 128.052 21.9805C128.064 22.1277 128.04 22.3364 128.162 22.4836C128.273 22.6186 128.432 22.68 128.616 22.68C128.727 22.68 130.47 22.5941 131.93 22.5205L131.881 21.465C130.813 21.465 129.341 21.5264 129.279 21.5264ZM134.565 15.8564L134.528 13.1809C134.884 13.1686 135.228 13.2055 135.535 13.3773C136.05 13.6841 136.222 14.31 136.332 14.9605C136.565 16.4332 135.829 17.3782 134.577 17.6236C134.577 17.4518 134.577 17.2677 134.577 17.0959L134.565 15.8564ZM136.676 22.7659L137.83 22.6309C137.093 20.8514 136.369 18.9614 136.013 18.1146C136.995 17.5623 137.609 16.5682 137.486 15.2673C137.4 14.4696 137.007 12.9846 136.295 12.5673C135.191 11.9291 133.804 12.1868 133.289 12.1991C133.289 12.1991 133.411 16.1018 133.399 17.955C133.375 20.4955 133.325 22.8273 133.325 22.8641L134.516 22.6432C134.516 22.5082 134.553 20.7041 134.565 18.6177C134.675 18.6055 134.786 18.5809 134.896 18.5564C135.289 19.4523 135.976 21.0723 136.676 22.7659ZM143.554 12.3586L143.542 12.2114L142.4 12.2236V12.3709C142.462 14.1014 142.474 16.2368 142.425 18.1391C142.241 17.5255 142.057 16.9364 141.885 16.3841C141.443 14.985 141.001 13.0827 140.829 12.3218L140.805 12.2114H139.7L139.713 12.3586C139.798 15.3532 139.811 19.3418 139.762 22.5327V22.68H140.915V22.545C140.94 20.8023 140.952 18.9736 140.94 17.1818C141.468 18.8755 141.995 20.6305 142.204 22.5573L142.216 22.68L143.345 22.6923L143.358 22.5573C143.591 19.44 143.664 15.6232 143.554 12.3586ZM147.795 17.6359C147.672 17.6359 147.488 17.6236 147.28 17.5991C147.304 17.4886 147.329 17.3905 147.353 17.28L147.635 15.9914L147.869 14.8868C148.04 15.6232 148.225 16.4577 148.421 17.3168C148.446 17.4027 148.458 17.4886 148.482 17.5746C148.212 17.6114 147.942 17.6359 147.795 17.6359ZM150.053 19.2314L149.771 17.9427C149.157 15.1568 148.482 12.3218 148.433 12.15C148.433 12.15 147.39 12.2482 147.23 12.2482C147.23 12.2482 147.194 12.1623 147.132 12.4814C146.911 13.8191 146.457 15.93 146.003 17.9059C145.402 20.5568 144.837 22.7905 144.825 22.8273L146.04 22.5818C146.077 22.4346 146.506 21.0232 147.01 18.8141C147.304 18.8509 147.623 18.8877 147.795 18.8877C147.991 18.8877 148.409 18.8386 148.752 18.7896C149.084 20.2868 149.182 21.5386 149.354 22.545C149.403 22.8641 149.452 22.7782 149.452 22.7782C149.93 22.7659 150.655 22.7046 150.655 22.7046L150.053 19.2314ZM156.553 12.0641C156.467 12.0518 155.24 12.1991 154.05 12.1991H153.485L151.828 12.2482C151.828 12.2482 151.828 12.7882 151.828 13.3159C151.828 13.3159 153.068 13.3036 153.681 13.3036C153.73 14.5186 153.743 16.3473 153.743 17.9918C153.718 20.4586 153.669 22.7168 153.669 22.7536L154.786 22.545C154.786 22.3732 154.835 19.7346 154.835 17.1573V15.9668L154.786 13.3282C155.326 13.3159 156.651 13.2055 156.651 13.2055L156.553 12.0641ZM159.411 12.2114C159.411 12.2114 158.687 12.2114 158.172 12.2236C158.172 12.2236 158.196 12.5182 158.208 12.8127C158.282 14.0646 158.294 16.065 158.282 17.9673C158.27 20.4955 158.208 22.815 158.208 22.8518L159.399 22.6309C159.411 22.4591 159.46 19.7468 159.46 17.1082V15.8686L159.411 12.2114ZM163.353 21.5632C163.009 21.5877 162.849 21.2073 162.788 20.9741C162.223 19.035 162.174 16.6786 162.616 14.1873C162.678 13.8805 163.021 13.1318 163.377 13.1318C163.573 13.1564 163.954 13.2914 164.003 13.7086C164.261 15.6968 164.518 18.5932 163.868 20.7777C163.647 21.5386 163.438 21.5509 163.353 21.5632ZM165.169 13.5859C165.046 12.6041 164.199 12.0886 163.463 12.0396C162.113 11.9414 161.536 13.5614 161.463 14.0032C160.984 16.6541 161.045 19.17 161.647 21.2564C162.027 22.5573 163.033 22.6555 163.328 22.6555C163.377 22.6555 163.414 22.6555 163.451 22.6555C164.445 22.5818 164.813 21.7105 165.009 21.0723C165.709 18.7036 165.439 15.66 165.169 13.5859ZM171.441 12.3586L171.429 12.2114L170.287 12.2236V12.3709C170.349 14.1014 170.361 16.2368 170.312 18.1391C170.128 17.5255 169.944 16.9364 169.772 16.3841C169.33 14.985 168.888 13.0827 168.716 12.3218L168.692 12.2114H167.587L167.6 12.3586C167.685 15.3532 167.698 19.3418 167.649 22.5327V22.68H168.802V22.545C168.827 20.8023 168.839 18.9736 168.827 17.1818C169.355 18.8755 169.882 20.6305 170.091 22.5573L170.103 22.68L171.232 22.6923L171.245 22.5573C171.478 19.44 171.551 15.6232 171.441 12.3586ZM175.682 17.6359C175.559 17.6359 175.375 17.6236 175.167 17.5991C175.191 17.4886 175.216 17.3905 175.24 17.28L175.523 15.9914L175.756 14.8868C175.928 15.6232 176.112 16.4577 176.308 17.3168C176.333 17.4027 176.345 17.4886 176.369 17.5746C176.099 17.6114 175.829 17.6359 175.682 17.6359ZM177.94 19.2314L177.658 17.9427C177.044 15.1568 176.369 12.3218 176.32 12.15C176.32 12.15 175.277 12.2482 175.118 12.2482C175.118 12.2482 175.081 12.1623 175.019 12.4814C174.798 13.8191 174.344 15.93 173.89 17.9059C173.289 20.5568 172.724 22.7905 172.712 22.8273L173.927 22.5818C173.964 22.4346 174.393 21.0232 174.897 18.8141C175.191 18.8509 175.51 18.8877 175.682 18.8877C175.878 18.8877 176.296 18.8386 176.639 18.7896C176.971 20.2868 177.069 21.5386 177.241 22.545C177.29 22.8641 177.339 22.7782 177.339 22.7782C177.818 22.7659 178.542 22.7046 178.542 22.7046L177.94 19.2314ZM180.942 21.4527C180.954 20.5936 180.942 19.0596 180.942 17.5132V16.4455C180.93 15.5864 180.942 14.6905 180.918 13.9909C180.93 13.9786 180.893 12.1623 180.893 12.1623C179.715 12.285 179.715 12.0764 179.727 12.3096C179.838 14.8868 179.764 21.2073 179.752 21.9927C179.764 22.1277 179.739 22.3241 179.862 22.4591C179.973 22.5941 180.12 22.6432 180.292 22.6432C180.414 22.6432 182.501 22.5818 183.532 22.4346L183.47 21.33C183.47 21.33 181.323 21.3914 180.942 21.4527ZM186.12 21.5264C186.132 20.6059 186.132 18.8141 186.132 17.1573L187.789 17.0591L187.777 15.9177L186.12 16.0159C186.12 15.0955 186.12 14.175 186.095 13.4264C186.12 13.4141 186.144 13.3773 186.169 13.365C186.402 13.2546 187.703 13.2177 188.783 13.1073L188.697 12.0518C187.482 12.1868 185.457 12.2973 185.285 12.3586C185.04 12.4323 184.88 12.6655 184.88 12.9109C185.003 15.66 184.905 21.1459 184.892 21.9805C184.905 22.1277 184.88 22.3364 185.003 22.4836C185.113 22.6186 185.273 22.68 185.457 22.68C185.567 22.68 187.31 22.5941 188.771 22.5205L188.722 21.465C187.654 21.465 186.181 21.5264 186.12 21.5264ZM192.081 15.6109L192.044 15.5496C191.958 15.4023 191.43 14.1136 192.031 13.5368C192.289 13.3036 192.486 13.23 192.584 13.2423C192.682 13.2546 192.817 13.365 192.94 13.5614L193.013 13.6718L193.995 13.095L193.909 12.9723C193.59 12.4814 193.185 12.1991 192.719 12.15C192.228 12.0886 191.712 12.2973 191.234 12.7514C190.129 13.7946 190.743 15.5496 191.037 16.0773C191.074 16.1755 192.044 18.3968 192.817 20.6918C192.866 20.8514 192.854 21.1091 192.731 21.2932C192.645 21.4405 192.498 21.5141 192.289 21.5509C191.541 21.6614 191.32 21.1336 191.271 20.9741L191.234 20.8391L190.129 21.1214L190.166 21.2564C190.301 21.7473 190.878 22.68 192.081 22.68C192.203 22.68 192.338 22.6677 192.461 22.6432C193.001 22.5696 193.443 22.2996 193.713 21.8823C193.995 21.4527 194.069 20.8514 193.909 20.3482C193.148 18.0655 192.191 15.8686 192.081 15.6109Z" fill="#421EF4"></path><path d="M51.575 29.5736C52.1972 29.6533 53.1705 29.9405 53.697 30.3553C54.7181 31.169 54.9574 33.8494 55.0531 34.9981C55.0691 35.1577 55.085 35.2853 55.101 35.397C55.2286 36.6733 55.0691 39.0187 54.3192 40.0238C53.8884 40.5822 53.0428 40.5662 52.0377 40.5503C51.8622 40.5343 51.6707 40.5343 51.4952 40.5343C51.5272 38.3486 51.591 32.1103 51.575 29.5736ZM56.5688 35.2534C56.5688 35.1417 56.5528 35.0141 56.5369 34.8705C56.4092 33.4186 56.154 30.4032 54.6223 29.2066C53.5693 28.377 50.9528 27.9462 50.171 28.3291L50.0753 28.3929V29.0152C50.1232 31.2807 50.0115 41.6831 50.0115 41.7947V41.9862H50.2029C50.2029 41.9862 51.591 42.0022 52.0058 42.0181C52.1813 42.0181 52.3568 42.0181 52.5482 42.0181C53.6012 42.0181 54.7659 41.8905 55.5158 40.9013C56.5688 39.4973 56.7283 36.6893 56.5688 35.2534ZM60.5768 40.5024C60.5927 39.3058 60.5927 36.9765 60.5927 34.8226L62.7466 34.695L62.7306 33.2112L60.5768 33.3388C60.5768 32.1422 60.5768 30.9457 60.5448 29.9724C60.5768 29.9565 60.6087 29.9086 60.6406 29.8927C60.9437 29.7491 62.6349 29.7012 64.0389 29.5576L63.9272 28.1855C62.3477 28.361 59.7152 28.5046 59.4919 28.5844C59.1728 28.6801 58.9653 28.9832 58.9653 29.3023C59.1249 32.8762 58.9973 40.0078 58.9813 41.0927C58.9973 41.2842 58.9654 41.5554 59.1249 41.7469C59.2685 41.9224 59.4759 42.0022 59.7152 42.0022C59.8588 42.0022 62.1244 41.8905 64.0229 41.7947L63.9591 40.4227C62.5711 40.4227 60.6565 40.5024 60.5768 40.5024ZM73.4828 40.4067C73.4987 39.2899 73.4828 37.2956 73.4828 35.2853V33.8972C73.4668 32.7804 73.4828 31.6157 73.4509 30.7063C73.4668 30.6904 73.4189 28.3291 73.4189 28.3291C71.8873 28.4887 71.8873 28.2174 71.9033 28.5206C72.0469 31.871 71.9511 40.0876 71.9352 41.1087C71.9511 41.2842 71.9192 41.5395 72.0788 41.715C72.2224 41.8905 72.4138 41.9543 72.6372 41.9543C72.7967 41.9543 75.509 41.8745 76.8492 41.6831L76.7694 40.2472C76.7694 40.2472 73.9773 40.3269 73.4828 40.4067ZM82.7023 35.4448C82.5428 35.4448 82.3035 35.4289 82.0323 35.397C82.0642 35.2534 82.0961 35.1257 82.128 34.9822L82.4949 33.3069L82.7981 31.871C83.0214 32.8283 83.2607 33.9132 83.516 35.03C83.5479 35.1417 83.5639 35.2534 83.5958 35.3651C83.2448 35.4129 82.8938 35.4448 82.7023 35.4448ZM85.638 37.5189L85.271 35.8437C84.4733 32.222 83.5958 28.5365 83.532 28.3132C83.532 28.3132 82.1758 28.4408 81.9684 28.4408C81.9684 28.4408 81.9206 28.3291 81.8408 28.7439C81.5536 30.483 80.9633 33.2272 80.373 35.7958C79.5912 39.242 78.8573 42.1457 78.8413 42.1936L80.4208 41.8745C80.4687 41.6831 81.0271 39.8483 81.6812 36.9765C82.0642 37.0243 82.479 37.0722 82.7023 37.0722C82.9576 37.0722 83.5001 37.0084 83.9468 36.9446C84.3776 38.891 84.5052 40.5184 84.7286 41.8267C84.7924 42.2415 84.8562 42.1298 84.8562 42.1298C85.4784 42.1138 86.4198 42.0341 86.4198 42.0341L85.638 37.5189ZM100.872 39.6728H100.649L100.585 39.8962C100.537 39.9759 100.25 40.1993 99.9308 40.311L99.8191 40.3588C99.5957 40.4865 98.5268 40.7258 97.5376 40.1355C96.357 39.4335 95.7188 37.7582 95.7188 35.2853C95.7188 32.7804 96.5963 31.4243 97.3302 30.7382C98.0322 30.0682 98.6863 29.9246 98.7821 29.9086L99.0692 29.9405L99.2926 28.2812L98.9895 28.2493C98.2875 28.1377 97.1866 28.6163 96.3251 29.3662C95.2721 30.2915 94.0436 32.0625 94.0436 35.2853C94.0436 39.1942 95.4795 40.8694 96.6761 41.5873C97.5376 42.0979 98.3992 42.1936 98.9735 42.1936C99.5798 42.1936 100.154 42.0819 100.569 41.8745C100.904 41.7309 102.053 41.013 102.292 40.0557L102.388 39.6728H100.872ZM105.995 40.4067C106.011 39.2899 105.995 37.2956 105.995 35.2853V33.8972C105.979 32.7804 105.995 31.6157 105.963 30.7063C105.979 30.6904 105.931 28.3291 105.931 28.3291C104.4 28.4887 104.4 28.2174 104.416 28.5206C104.559 31.871 104.463 40.0876 104.447 41.1087C104.463 41.2842 104.432 41.5395 104.591 41.715C104.735 41.8905 104.926 41.9543 105.149 41.9543C105.309 41.9543 108.021 41.8745 109.361 41.6831L109.282 40.2472C109.282 40.2472 106.49 40.3269 105.995 40.4067ZM115.215 35.4448C115.055 35.4448 114.816 35.4289 114.545 35.397C114.576 35.2534 114.608 35.1257 114.64 34.9822L115.007 33.3069L115.31 31.871C115.534 32.8283 115.773 33.9132 116.028 35.03C116.06 35.1417 116.076 35.2534 116.108 35.3651C115.757 35.4129 115.406 35.4448 115.215 35.4448ZM118.15 37.5189L117.783 35.8437C116.986 32.222 116.108 28.5365 116.044 28.3132C116.044 28.3132 114.688 28.4408 114.481 28.4408C114.481 28.4408 114.433 28.3291 114.353 28.7439C114.066 30.483 113.476 33.2272 112.885 35.7958C112.103 39.242 111.37 42.1457 111.354 42.1936L112.933 41.8745C112.981 41.6831 113.539 39.8483 114.194 36.9765C114.576 37.0243 114.991 37.0722 115.215 37.0722C115.47 37.0722 116.012 37.0084 116.459 36.9446C116.89 38.891 117.018 40.5184 117.241 41.8267C117.305 42.2415 117.368 42.1298 117.368 42.1298C117.991 42.1138 118.932 42.0341 118.932 42.0341L118.15 37.5189ZM123.473 32.8123L123.425 32.7326C123.313 32.5411 122.627 30.8659 123.409 30.116C123.744 29.8129 123.999 29.7172 124.127 29.7331C124.255 29.7491 124.43 29.8927 124.59 30.1479L124.685 30.2915L125.962 29.5417L125.85 29.3821C125.435 28.7439 124.909 28.377 124.303 28.3132C123.664 28.2334 122.994 28.5046 122.372 29.0949C120.936 30.4511 121.734 32.7326 122.117 33.4186C122.165 33.5462 123.425 36.434 124.43 39.4175C124.494 39.6249 124.478 39.96 124.319 40.1993C124.207 40.3907 124.015 40.4865 123.744 40.5343C122.771 40.6779 122.484 39.9919 122.42 39.7845L122.372 39.609L120.936 39.9759L120.984 40.1514C121.16 40.7896 121.909 42.0022 123.473 42.0022C123.632 42.0022 123.808 41.9862 123.968 41.9543C124.67 41.8586 125.244 41.5076 125.595 40.9651C125.962 40.4067 126.058 39.6249 125.85 38.9708C124.861 36.0032 123.617 33.1474 123.473 32.8123ZM130.838 32.8123L130.79 32.7326C130.678 32.5411 129.992 30.8659 130.774 30.116C131.109 29.8129 131.364 29.7172 131.492 29.7331C131.62 29.7491 131.795 29.8927 131.955 30.1479L132.05 30.2915L133.327 29.5417L133.215 29.3821C132.8 28.7439 132.274 28.377 131.667 28.3132C131.029 28.2334 130.359 28.5046 129.737 29.0949C128.301 30.4511 129.099 32.7326 129.482 33.4186C129.53 33.5462 130.79 36.434 131.795 39.4175C131.859 39.6249 131.843 39.96 131.683 40.1993C131.572 40.3907 131.38 40.4865 131.109 40.5343C130.136 40.6779 129.849 39.9919 129.785 39.7845L129.737 39.609L128.301 39.9759L128.349 40.1514C128.524 40.7896 129.274 42.0022 130.838 42.0022C130.997 42.0022 131.173 41.9862 131.332 41.9543C132.034 41.8586 132.609 41.5076 132.96 40.9651C133.327 40.4067 133.422 39.6249 133.215 38.9708C132.226 36.0032 130.981 33.1474 130.838 32.8123ZM137.277 40.5024C137.293 39.3058 137.293 36.9765 137.293 34.8226L139.447 34.695L139.431 33.2112L137.277 33.3388C137.277 32.1422 137.277 30.9457 137.245 29.9724C137.277 29.9565 137.309 29.9086 137.341 29.8927C137.644 29.7491 139.335 29.7012 140.739 29.5576L140.627 28.1855C139.048 28.361 136.415 28.5046 136.192 28.5844C135.873 28.6801 135.666 28.9832 135.666 29.3023C135.825 32.8762 135.698 40.0078 135.682 41.0927C135.698 41.2842 135.666 41.5554 135.825 41.7469C135.969 41.9224 136.176 42.0022 136.415 42.0022C136.559 42.0022 138.825 41.8905 140.723 41.7947L140.659 40.4227C139.271 40.4227 137.357 40.5024 137.277 40.5024ZM150.151 29.5736C150.773 29.6533 151.747 29.9405 152.273 30.3553C153.294 31.169 153.533 33.8494 153.629 34.9981C153.645 35.1577 153.661 35.2853 153.677 35.397C153.805 36.6733 153.645 39.0187 152.895 40.0238C152.465 40.5822 151.619 40.5662 150.614 40.5503C150.438 40.5343 150.247 40.5343 150.071 40.5343C150.103 38.3486 150.167 32.1103 150.151 29.5736ZM155.145 35.2534C155.145 35.1417 155.129 35.0141 155.113 34.8705C154.985 33.4186 154.73 30.4032 153.198 29.2066C152.145 28.377 149.529 27.9462 148.747 28.3291L148.651 28.3929V29.0152C148.699 31.2807 148.588 41.6831 148.588 41.7947V41.9862H148.779C148.779 41.9862 150.167 42.0022 150.582 42.0181C150.757 42.0181 150.933 42.0181 151.124 42.0181C152.177 42.0181 153.342 41.8905 154.092 40.9013C155.145 39.4973 155.304 36.6893 155.145 35.2534ZM159.153 40.5024C159.169 39.3058 159.169 36.9765 159.169 34.8226L161.323 34.695L161.307 33.2112L159.153 33.3388C159.153 32.1422 159.153 30.9457 159.121 29.9724C159.153 29.9565 159.185 29.9086 159.217 29.8927C159.52 29.7491 161.211 29.7012 162.615 29.5576L162.503 28.1855C160.924 28.361 158.291 28.5046 158.068 28.5844C157.749 28.6801 157.541 28.9832 157.541 29.3023C157.701 32.8762 157.573 40.0078 157.557 41.0927C157.573 41.2842 157.541 41.5554 157.701 41.7469C157.845 41.9224 158.052 42.0022 158.291 42.0022C158.435 42.0022 160.7 41.8905 162.599 41.7947L162.535 40.4227C161.147 40.4227 159.233 40.5024 159.153 40.5024ZM170.603 33.1314L170.539 28.3929C170.539 28.3929 169.614 28.3929 168.944 28.4089C168.944 28.4089 168.976 28.7918 168.992 29.1747C169.072 30.4032 169.088 32.1742 169.088 34.0249C168.657 34.0089 168.114 34.0089 167.588 34.0089H167.045L166.503 34.0249L166.487 33.1314L166.439 28.3929C166.439 28.3929 165.514 28.3929 164.844 28.4089C164.844 28.4089 164.876 28.7918 164.892 29.1747C164.987 30.7861 165.003 33.3867 164.987 35.8277C164.955 39.0825 164.892 42.0819 164.892 42.1298L166.423 41.8586C166.423 41.6512 166.487 38.6517 166.503 35.4927C166.95 35.4767 167.476 35.4767 167.971 35.4767C168.37 35.4927 168.753 35.4927 169.088 35.5087C169.088 35.6203 169.088 35.7161 169.088 35.8277C169.072 39.0825 168.992 42.0819 168.992 42.1298L170.524 42.0979C170.539 41.8745 170.603 38.1412 170.603 34.7109V33.1314ZM175.926 40.5503C175.48 40.5822 175.272 40.0876 175.192 39.7845C174.458 37.2637 174.395 34.2004 174.969 30.9616C175.049 30.5627 175.496 29.5895 175.958 29.5895C176.213 29.6214 176.708 29.7969 176.772 30.3394C177.107 32.924 177.442 36.6893 176.596 39.5292C176.309 40.5184 176.038 40.5343 175.926 40.5503ZM178.288 30.1798C178.128 28.9035 177.027 28.2334 176.07 28.1696C174.315 28.0419 173.565 30.1479 173.469 30.7223C172.847 34.1685 172.927 37.4392 173.709 40.1514C174.203 41.8426 175.511 41.9702 175.894 41.9702C175.958 41.9702 176.006 41.9702 176.054 41.9702C177.346 41.8745 177.825 40.7417 178.08 39.9121C178.99 36.8329 178.639 32.8762 178.288 30.1798ZM182.899 33.1314L182.851 29.6533C183.314 29.6374 183.761 29.6852 184.16 29.9086C184.83 30.3075 185.053 31.1212 185.197 31.9667C185.5 33.8813 184.543 35.1098 182.915 35.4289C182.915 35.2055 182.915 34.9662 182.915 34.7428L182.899 33.1314ZM185.644 42.1138L187.143 41.9383C186.186 39.6249 185.245 37.1679 184.782 36.0671C186.058 35.3491 186.856 34.0568 186.697 32.3656C186.585 31.3286 186.074 29.3981 185.149 28.8556C183.713 28.026 181.91 28.361 181.24 28.377C181.24 28.377 181.4 33.4505 181.384 35.8597C181.352 39.1622 181.288 42.1936 181.288 42.2415L182.836 41.9543C182.836 41.7788 182.883 39.4335 182.899 36.7212C183.043 36.7052 183.187 36.6733 183.33 36.6414C183.841 37.8061 184.734 39.9121 185.644 42.1138ZM191.92 32.8123L191.873 32.7326C191.761 32.5411 191.075 30.8659 191.857 30.116C192.192 29.8129 192.447 29.7172 192.575 29.7331C192.702 29.7491 192.878 29.8927 193.037 30.1479L193.133 30.2915L194.409 29.5417L194.298 29.3821C193.883 28.7439 193.356 28.377 192.75 28.3132C192.112 28.2334 191.442 28.5046 190.82 29.0949C189.384 30.4511 190.181 32.7326 190.564 33.4186C190.612 33.5462 191.873 36.434 192.878 39.4175C192.941 39.6249 192.926 39.96 192.766 40.1993C192.654 40.3907 192.463 40.4865 192.192 40.5343C191.218 40.6779 190.931 39.9919 190.867 39.7845L190.82 39.609L189.384 39.9759L189.432 40.1514C189.607 40.7896 190.357 42.0022 191.92 42.0022C192.08 42.0022 192.255 41.9862 192.415 41.9543C193.117 41.8586 193.691 41.5076 194.042 40.9651C194.409 40.4067 194.505 39.6249 194.298 38.9708C193.308 36.0032 192.064 33.1474 191.92 32.8123Z" fill="#489E83"></path></svg>